<svg xmlns="http://www.w3.org/2000/svg" version="1.1" xmlns:xlink="http://www.w3.org/1999/xlink" width="51" height="51" x="0" y="0" viewBox="0 0 512 512" style="enable-background:new 0 0 512 512" xml:space="preserve" class=""><defs><linearGradient id="a" x1="74.98" x2="437.02" y1="74.98" y2="437.02" gradientUnits="userSpaceOnUse"><stop offset="0" stop-color="#fde560"></stop><stop offset="1" stop-color="#ff6f00"></stop></linearGradient></defs><g><linearGradient id="a" x1="74.98" x2="437.02" y1="74.98" y2="437.02" gradientUnits="userSpaceOnUse"><stop offset="0" stop-color="#fde560"></stop><stop offset="1" stop-color="#ff6f00"></stop></linearGradient><path fill="url(&quot;#a&quot;)" d="M310.15 295.55c.02 36.18-61.93 32.06-81.67 32.08v-64.14c19.76 0 81.67-5.67 81.67 32.06zM512 256c0 141.38-114.62 256-256 256S0 397.38 0 256 114.62 0 256 0s256 114.61 256 256zm-186.07-14.95c16.89-8.6 27.45-23.76 24.98-49-3.32-34.51-33.1-46.07-70.71-49.37V94.82h-29.13v46.6c-7.66 0-15.49.15-23.26.31V94.82H198.7v47.85c-6.32.13-12.51.25-18.55.25v-.15l-40.19-.01v31.12s21.52-.41 21.16-.01c11.8 0 15.64 6.85 16.76 12.77v54.53c.82 0 1.88.04 3.08.2h-3.08v76.38c-.53 3.71-2.71 9.64-10.95 9.65.37.33-21.18 0-21.18 0l-5.79 34.79h37.91c7.06 0 14 .13 20.81.17v48.41h29.11v-47.9c7.99.17 15.72.23 23.27.22v47.68h29.12v-48.32c48.99-2.81 83.27-15.15 87.53-61.14 3.44-37.04-13.99-53.56-41.79-60.24zm-29.33-35.99c0-34.33-51.67-29.1-68.11-29.1v58.17c16.44 0 68.1 3.84 68.11-29.07z" opacity="1" data-original="url(#a)" class=""></path></g></svg>